<svg width="581" height="141" viewBox="0 0 581 141" fill="none" xmlns="http://www.w3.org/2000/svg">
<g opacity="0.5" clip-path="url(#clip0_46_36)">
<path fill-rule="evenodd" clip-rule="evenodd" d="M550.432 23.9342C542.021 25.2696 530.019 28.3512 524.48 30.6111C519.864 32.5628 515.761 36.6717 510.222 38.7262C502.631 41.6024 493.296 44.5813 484.782 46.0194C475.756 47.4575 462.831 46.4303 450.829 47.3548C447.649 47.5602 444.367 48.9984 440.879 49.2038C431.545 50.0256 420.056 49.2038 408.567 49.4092C385.487 49.9229 362.715 49.6147 342.302 45.9167C331.531 43.965 319.735 43.1432 313.272 39.9588C306.707 36.7744 302.091 27.324 298.912 21.3662C297.373 18.4899 294.706 14.6892 292.552 10.3749C290.705 6.67692 288.141 -0.924505 282.807 -7.47293e-06C274.498 1.54082 268.241 6.26603 261.266 8.32047C253.777 10.4776 246.699 9.96402 237.365 11.094C230.184 12.0185 222.901 15.1001 215.208 16.0246C208.848 16.8464 201.976 16.6409 195.205 17.0518C164.124 19.0035 135.403 20.0308 106.373 25.2696C96.2179 27.1186 86.1653 30.7139 75.9075 33.1792C55.2894 38.2126 43.9033 42.9378 27.9011 52.1827C24.8238 53.929 21.6439 55.8807 18.5666 57.4216C7.69332 62.8658 -6.35983 68.6182 3.07732 84.5401C5.43661 88.5463 10.9758 92.5525 15.0789 97.0722C19.6949 102.106 23.9006 106.625 27.5934 108.474C37.3383 113.405 49.1347 114.946 59.5977 118.849C70.1632 122.958 78.8823 125.732 92.1148 128.094C100.936 129.635 109.45 133.025 118.375 134.155C152.533 138.469 191.41 142.783 230.39 138.264C245.469 136.517 260.65 132.511 275.832 129.943C290.603 127.581 305.271 124.088 319.53 120.596C326.608 118.849 333.378 116.076 340.558 114.535C347.841 112.891 355.74 112.07 363.33 110.632C378.204 107.755 393.386 104.16 408.259 102.311C414.722 101.489 420.774 101.9 426.621 101.284C437.084 100.359 447.239 98.2022 459.959 98.8185C482.731 99.9484 501.4 110.632 521.095 116.384C530.942 119.26 540.38 122.855 550.227 126.862C558.946 130.354 570.025 136.415 580.898 130.56C578.538 118.747 565.203 115.665 556.484 108.783C553.817 106.625 550.637 102.825 547.97 99.5375C541.918 92.2443 531.968 84.232 537.302 70.2618C538.943 65.9475 544.175 64.3039 548.175 61.1195C550.227 59.476 551.458 57.8324 553.612 56.4971C558.536 53.5181 560.895 52.3882 565.101 47.2521C568.281 43.3486 577.615 34.9255 575.769 27.5295C573.717 19.5172 561.203 21.9825 550.637 23.626L550.432 23.9342ZM568.281 25.7832C551.458 30.303 533.302 36.2608 515.658 38.1098C530.84 32.0492 546.021 23.2152 568.281 25.7832ZM471.447 48.6902C476.371 50.1283 481.192 51.7719 483.859 55.6753C484.372 57.4216 483.039 57.4216 482.833 58.4488C483.962 58.7569 484.782 59.476 485.09 60.6059C482.731 59.6814 482.115 56.9079 478.833 56.8052C477.91 53.4154 474.935 52.1827 473.089 49.7174C472.37 49.7174 470.011 48.8956 471.345 48.6902H471.447ZM486.321 66.1529C482.731 64.6121 479.243 62.8658 476.679 60.195C478.73 60.8114 478.423 58.9624 479.448 58.4488C482.013 60.6059 484.577 62.9685 486.321 66.0502V66.1529ZM469.806 49.3065C470.524 51.5664 477.705 54.6481 476.679 58.6542C470.934 56.1889 465.6 53.4154 461.497 49.512C464.369 49.9229 467.447 47.663 469.806 49.3065ZM465.6 58.8597C468.165 59.9896 466.113 55.4698 466.626 54.9562C471.242 59.0651 476.474 62.5577 478.628 69.1319C473.294 67.6937 469.909 64.2012 465.087 62.2495C465.703 60.4005 464.677 59.8869 465.6 58.8597ZM455.855 72.9326C446.008 69.2346 434.006 64.7148 430.416 56.2916C434.212 58.5515 437.391 61.5304 442.213 62.7631C442.315 61.9413 443.136 61.7359 443.238 61.0168C444.264 58.5515 440.777 58.0379 442.007 57.1134C446.316 59.5787 451.034 64.3039 456.061 63.9958C456.061 63.2767 456.266 62.7631 456.573 62.3522C455.753 59.7842 454.009 58.1406 452.573 56.2916C459.959 60.5032 467.447 64.6121 471.345 72.6244C467.139 71.5972 462.933 69.9536 458.933 67.8992C455.343 66.0502 451.855 62.1468 448.265 63.6876C450.316 67.1801 454.932 68.1046 455.753 72.9326H455.855ZM426.416 75.2952C417.594 74.268 410.619 65.3311 402.823 66.872C404.054 70.57 408.259 71.0836 410.208 73.9598C403.541 69.5427 392.873 66.3584 389.283 60.5032C392.77 62.6604 395.642 65.6393 400.566 66.3584C403.541 63.6876 397.796 60.7087 398.72 58.5515C403.028 60.9141 410.824 69.6455 415.03 64.8175C413.696 61.6332 411.337 59.5787 409.285 57.1134C413.593 58.7569 416.158 62.1468 421.082 62.9685C421.184 62.1468 422.005 61.9413 422.107 61.2223C422.825 59.5787 420.158 58.4488 421.492 57.9352C428.775 63.0713 437.289 66.872 441.392 75.2952C431.442 73.8571 426.21 64.6121 417.184 64.2012C419.953 68.1046 424.672 69.9536 426.313 75.0897L426.416 75.2952ZM460.984 52.7991C459.035 52.1827 457.599 51.0528 456.471 49.6147C459.138 49.6147 459.651 51.5664 460.984 52.7991ZM455.343 50.1283C453.906 54.2372 461.805 56.5998 461.702 59.476C457.497 55.6753 451.034 54.3399 447.547 49.7174C450.009 50.0256 453.804 48.7929 455.343 50.1283ZM445.905 50.3337C446.931 55.9834 452.368 56.9079 454.009 61.8386C447.752 58.7569 441.597 55.3671 436.468 51.0528C439.648 50.8474 443.546 51.2582 445.905 50.231V50.3337ZM440.571 59.9896C435.237 57.627 430.416 54.6481 425.903 51.361C434.93 49.9229 437.084 55.6753 440.571 59.9896ZM429.39 60.8114C424.159 58.0379 418.62 55.778 414.722 51.6691C423.749 50.0256 427.749 56.5998 429.39 60.8114ZM412.568 52.2855C412.26 54.9562 419.44 57.5243 418.927 60.5032C414.824 57.0107 406.413 54.9562 404.259 51.361C405.798 53.0045 411.029 50.6419 412.568 52.2855ZM400.258 51.9773C403.849 56.1889 410.824 59.8869 411.644 65.1257C404.772 60.5032 396.873 57.0107 390.719 51.6691C393.591 52.08 396.668 52.2855 400.156 51.9773H400.258ZM387.436 51.7719C390.411 56.2916 397.591 59.3733 398.309 64.3039C395.335 62.044 391.231 60.0923 387.539 57.8324C384.256 55.8807 380.461 51.1555 376.871 53.6208C379.743 56.5998 387.744 59.9896 386.513 63.4821C380.461 59.1678 372.87 56.4971 367.844 51.0528C374.306 51.2582 380.153 52.1827 387.334 51.6691L387.436 51.7719ZM375.947 58.6542C382.718 64.0985 394.309 67.591 395.848 76.6306C389.59 72.8298 383.743 68.8237 377.178 65.3311C378.102 62.044 375.229 59.8869 375.947 58.6542ZM363.741 58.4488C371.229 62.044 377.691 69.7482 381.384 75.2952C376.05 71.5972 370.921 67.6937 364.972 64.5094C366.203 62.1468 364.664 60.0923 363.741 58.3461V58.4488ZM374.409 63.174C368.049 58.9624 361.484 55.0589 355.74 50.231C364.766 49.3065 372.357 56.8052 374.409 63.174ZM363.228 61.7359C355.637 58.0379 349.585 52.7991 342.302 48.7929C353.791 48.382 358.099 55.4698 363.228 61.7359ZM337.891 72.9326C329.48 69.5427 324.043 60.0923 315.324 58.9624C319.735 64.2012 325.582 67.8992 328.454 74.7816C316.555 71.5972 312.144 60.6059 301.886 55.8807C304.656 62.4549 313.683 65.5366 313.99 72.8298C308.451 68.0019 301.271 63.174 295.834 58.2433C294.09 56.7025 292.859 52.5936 289.577 53.929C292.654 60.0923 299.424 62.2495 301.066 69.8509C288.962 66.5638 281.268 55.6753 271.728 51.5664C276.139 58.5515 284.756 61.1195 287.218 70.1591C275.934 67.1801 269.267 57.627 261.163 51.2582C259.727 50.1283 257.265 48.382 255.008 49.2038C259.624 54.8535 266.189 58.3461 269.267 65.6393C264.138 63.6876 259.214 60.5032 254.598 57.1134C250.7 54.1345 245.879 47.7657 241.571 48.9984C246.392 54.2372 251.726 58.9624 255.316 65.3311C242.802 60.9141 234.595 48.9984 224.235 44.3759C228.441 51.361 236.031 54.8535 239.109 62.9685C233.98 60.2978 228.338 57.4216 223.825 53.3127C219.619 49.512 215.413 41.3969 210.182 42.5269C215.003 48.382 221.671 52.1827 225.056 59.476C219.722 57.1134 215.106 53.3127 210.387 49.8201C205.771 46.3276 201.36 41.9105 196.231 40.6779C199.001 46.3276 205.668 47.8684 208.746 53.21C197.872 48.9984 189.153 39.4452 178.28 37.1853C182.794 43.4514 190.384 46.533 194.795 53.0045C190.179 50.7446 185.255 47.8684 180.639 44.9922C176.126 42.116 171.715 37.1853 167.099 38.0071C170.689 42.6296 176.741 44.684 180.742 48.7929C173.767 45.6085 168.33 40.8833 162.073 36.9799C163.304 37.0826 164.227 36.7744 164.227 35.8499C163.714 33.8982 160.226 32.152 160.739 30.9193C164.945 32.9737 168.022 36.2608 173.151 37.2881C174.382 34.9255 176.023 36.1581 179.203 36.0554C179.203 35.2336 178.998 34.001 179.716 33.7955C181.563 35.6445 184.332 36.569 186.999 37.4935C187.512 36.7744 187.922 35.8499 188.64 35.2336C189.564 36.569 191.102 37.2881 193.154 37.3908C194.282 37.1853 193.667 35.3363 194.795 35.1309C195.821 36.3636 198.488 38.1098 199.821 37.1853C200.027 32.3574 194.898 30.303 194.59 27.8376C200.334 31.7411 204.643 37.0826 211.618 39.7534C213.875 38.1098 210.695 35.3363 211.515 34.2064C214.49 37.2881 217.157 40.8833 222.286 41.8078C223.927 40.7806 221.465 38.418 222.799 37.9044C224.338 40.0616 226.697 41.3969 229.569 42.2187C231.21 39.8561 228.954 37.3908 227.723 36.1581C233.364 38.7262 235.724 44.4786 242.391 45.814C243.212 45.0949 243.109 42.6296 242.391 41.9105C246.392 43.2459 248.341 46.7385 253.059 47.2521C255.008 45.814 252.854 43.2459 253.47 42.2187C256.034 44.684 258.598 47.0466 262.496 48.1766C262.599 47.3548 263.42 47.2521 263.625 46.533C263.317 43.6568 259.829 40.986 260.137 39.3425C263.83 43.1432 267.318 47.0466 272.652 49.1011C273.78 48.8956 273.165 47.0466 274.293 46.8412C275.729 48.5875 277.781 49.7174 279.935 50.6419C281.473 49.9229 280.448 47.1494 280.96 46.7385C283.525 48.9984 285.884 51.4637 289.987 52.08C291.526 52.2855 290.5 50.0256 291.629 49.8201C293.475 51.4637 295.116 53.4154 298.399 53.5181C300.655 52.3882 298.091 49.7174 298.809 48.9984C301.476 50.9501 303.015 54.1345 307.323 54.3399C308.759 52.3882 306.707 50.3337 306.092 48.7929C311.426 51.2582 314.708 55.6753 320.248 57.9352C320.453 56.9079 322.402 57.4216 321.889 55.6753C325.069 56.4971 325.787 59.8869 329.787 59.9896C329.89 59.1678 330.711 59.0651 330.813 58.3461C331.224 56.7025 328.351 55.6753 329.582 55.059C332.66 57.4216 334.609 60.8114 339.737 60.9141C341.481 58.7569 338.096 56.3943 339.019 55.3671C343.533 58.4488 347.123 62.4549 353.175 63.9958C355.637 59.7842 348.457 55.5726 349.072 55.1617C352.56 57.627 355.534 60.6059 359.843 62.1468C358.817 68.1046 368.562 70.3645 367.946 75.9115C364.254 73.3435 360.048 70.57 355.534 67.7965C351.739 65.4339 346.815 60.8114 342.097 63.0713C345.584 67.7965 352.97 71.4945 353.585 77.2469C349.79 73.9598 344.866 71.5972 340.558 68.6182C336.25 65.6393 332.352 61.0168 327.018 61.1195C329.582 66.2556 335.532 67.6937 337.891 73.138V72.9326ZM150.071 37.1853C150.276 36.2608 149.251 35.7472 150.071 35.5418C152.328 36.9799 154.379 38.6234 158.483 38.1098C158.483 36.6717 158.072 34.4118 159.508 35.8499C161.15 36.2608 158.277 36.6717 158.995 38.1098C164.432 42.6296 169.766 47.3548 174.895 52.2855C165.971 47.9711 160.432 40.0616 150.071 37.2881V37.1853ZM164.33 53.0045C157.252 47.1494 145.353 46.2249 141.66 36.7744C151.302 39.6507 160.226 46.1221 164.33 53.0045ZM168.125 27.2213C170.895 29.0703 174.177 30.4057 176.023 33.1792C173.151 31.8438 168.227 29.5839 168.125 27.2213ZM220.029 31.1247C221.363 33.3846 228.235 38.1098 226.286 38.2126C221.363 33.8982 215.824 30.2002 211.002 25.7832C212.951 26.2968 215.106 26.3995 217.157 26.8104C216.849 28.5567 216.747 27.9404 217.157 29.5839C218.183 30.0975 218.798 30.9193 220.029 31.2275V31.1247ZM239.724 41.8078C232.544 37.1853 226.184 31.7411 218.798 27.2213C221.978 27.6322 225.363 27.9404 227.723 29.2757C227.107 29.3785 227.107 30.2002 227.21 31.022C232.339 33.6928 235.929 37.9044 239.724 41.9105V41.8078ZM251.521 44.2731C243.622 40.1643 234.698 34.2064 229.979 28.6594C236.031 30.6111 243.52 31.2275 250.085 32.6656C252.957 37.0826 260.137 40.0616 260.342 45.1976C257.675 42.5269 253.982 40.6779 250.7 38.2126C247.828 36.0554 245.058 31.5356 241.058 32.3574C243.725 37.1853 249.366 38.8289 251.315 44.3759L251.521 44.2731ZM219.106 38.3153C214.182 34.2064 209.669 29.5839 204.335 25.8859C204.232 25.1669 203.412 24.756 204.848 24.756C210.182 28.2485 216.849 33.4873 219.106 38.3153ZM209.053 36.3636C204.027 31.8438 196.026 27.6322 192.641 23.3179C201.668 23.5233 207.207 30.5084 209.053 36.3636ZM296.757 50.4365C290.09 46.9439 284.961 41.9105 279.217 37.4935C288.961 37.6989 291.731 45.3004 296.757 50.4365ZM291.423 38.9316C296.347 42.0133 302.604 46.9439 304.553 51.4637C300.758 47.1494 293.577 43.2459 291.423 38.9316ZM288.346 48.9984C281.986 45.6085 274.395 40.3697 270.805 36.0554C278.704 38.2126 283.217 43.965 288.346 48.9984ZM277.678 46.4303C272.344 43.6568 268.446 39.3425 264.035 35.6445C269.882 37.9044 273.472 42.5269 277.678 46.4303ZM269.882 45.5058C266.087 41.0888 258.906 37.1853 256.239 33.5901C261.778 36.1581 267.523 41.4997 269.882 45.5058ZM330.608 46.3276C333.378 47.4575 337.378 47.2521 340.148 48.382C340.353 53.3127 350.303 55.9834 350.406 60.9141C345.995 57.1134 338.814 53.5181 333.993 50.1283C332.454 49.1011 330.095 47.2521 330.608 46.3276ZM337.583 57.9352C331.224 54.1345 324.966 50.231 320.555 44.3759C328.351 46.6358 332.762 52.4909 337.583 57.9352ZM316.042 43.3486C318.401 49.1011 326.197 52.08 327.531 57.0107C322.402 52.5936 316.452 49.2038 312.247 43.965C313.683 44.4786 315.529 44.8895 316.145 43.3486H316.042ZM317.991 54.4426C312.554 49.2038 302.604 45.5058 298.809 40.3697C308.144 41.6024 314.503 48.9984 317.991 54.4426ZM305.989 39.6507C299.732 39.0343 293.988 37.8017 288.654 36.1581C294.706 36.2608 296.552 32.4601 301.373 31.4329C302.297 34.2064 307.118 38.5207 305.989 39.6507ZM299.63 29.7894C291.116 35.5418 279.729 37.3908 268.549 33.2819C279.011 30.4057 286.705 24.8587 295.526 20.4417C296.86 23.626 298.809 26.1941 299.63 29.7894ZM265.163 32.2547C265.163 32.9737 266.189 32.7683 266.292 33.2819C258.393 32.0492 250.597 30.8166 243.314 28.7621C263.009 27.1186 275.319 18.2845 291.423 13.1484C292.039 15.511 293.475 17.1546 294.398 19.209C284.243 23.1124 277.37 30.0975 265.163 32.152V32.2547ZM287.32 5.54698C288.141 7.70414 290.295 8.52591 290.192 11.6076C271.318 19.3117 244.751 33.2819 220.952 24.3451C245.981 21.777 268.754 15.6137 287.32 5.54698ZM246.289 13.1484C260.445 11.6076 273.985 3.49254 283.833 2.25988C284.653 2.25988 285.064 2.46532 285.474 2.77349C282.704 8.0123 274.703 9.96402 267.933 12.1212C261.266 14.2783 254.495 17.5654 248.033 19.3117C237.365 22.1879 224.645 18.2845 215.824 24.5505C204.335 21.8798 193.872 21.6743 181.255 20.3389C203.719 20.3389 224.645 15.6137 246.187 13.2511L246.289 13.1484ZM195.616 33.2819C191.615 29.173 186.384 26.605 181.973 23.0097C189.256 23.1124 193.256 29.7894 195.616 33.2819ZM190.589 34.5146C185.255 30.6111 179.921 26.605 174.792 22.5988C181.46 24.6533 188.435 29.5839 190.589 34.5146ZM185.05 34.1037C178.178 30.6111 169.561 25.9886 165.253 21.777C174.28 23.3179 179.203 29.173 185.05 34.1037ZM155.303 22.5988C159.098 25.475 163.099 28.0431 166.586 31.2275C167.099 31.2275 167.715 31.2275 168.227 31.2275C168.74 32.152 169.561 32.9737 170.484 33.3846C171.613 34.6173 170.279 34.72 169.971 33.3846C162.688 30.303 156.226 26.5023 149.661 22.7015C151.507 22.7015 153.354 22.7015 155.2 22.5988H155.303ZM143.609 23.4206C148.635 25.3723 152.738 28.2485 156.636 31.4329C157.252 31.9465 160.637 32.4601 158.893 33.5901C156.431 32.3574 153.354 29.9948 150.482 28.2485C147.815 26.605 142.891 25.2696 143.711 23.4206H143.609ZM155.61 35.9527C147.609 33.0765 141.455 28.3512 134.172 24.756C143.199 24.3451 149.045 31.9465 155.61 35.9527ZM130.889 25.3723C135.608 29.5839 144.122 32.7683 146.789 37.2881C139.711 33.1792 132.018 29.5839 124.837 25.5778C126.889 25.5778 128.94 25.475 130.992 25.475L130.889 25.3723ZM123.606 26.0914C123.606 26.0914 122.786 26.7077 123.093 27.2213C126.171 32.152 138.48 32.6656 140.634 39.6507C130.787 36.6717 124.016 30.4057 115.81 25.6805C118.682 26.8104 121.452 24.9614 123.606 26.0914ZM137.659 54.7508C130.069 50.9501 122.888 46.7385 116.221 41.9105C114.066 40.8833 120.529 43.7595 122.375 43.965C122.375 42.9378 124.222 43.5541 124.016 42.2187C124.735 40.0616 121.657 39.0343 122.786 38.3153C125.965 39.9588 128.325 42.4242 133.454 42.0133C134.069 40.4724 132.325 38.7262 133.454 38.6234C134.787 40.1643 139.198 44.0677 139.095 41.8078C142.583 46.1221 146.994 49.512 150.482 53.8263C141.865 50.7446 133.659 41.1915 124.632 42.2187C128.632 46.8412 135.197 48.5875 137.762 54.7508H137.659ZM102.27 41.0888C103.091 41.9105 104.219 42.4242 105.655 42.6296C105.86 43.965 104.629 43.8623 105.142 45.4031C109.656 48.4847 114.887 53.8263 115.503 59.0651C110.681 54.8535 105.963 50.4365 101.86 45.4031C105.86 45.1976 101.449 41.1915 102.27 40.986V41.0888ZM109.04 44.2731C110.168 45.3004 112.22 44.5813 113.451 44.1704C118.067 47.3548 123.606 52.4909 125.453 56.7025C120.221 52.6963 112.733 48.0739 109.04 44.2731ZM113.554 25.7832C117.657 32.152 126.581 33.3846 130.581 39.8561C120.734 37.3908 113.143 29.5839 103.604 28.7621C105.45 31.1247 109.245 33.2819 112.63 35.2336C115.708 36.9799 121.042 38.3153 120.016 41.1915C111.297 37.8017 102.783 34.1037 94.6792 30.0975C100.116 27.9404 107.194 27.2213 113.451 25.7832H113.554ZM93.6535 30.7139C96.936 36.3636 107.501 37.3908 109.553 42.6296C102.373 39.1371 94.1664 36.6717 88.1143 31.9465C90.6787 32.2547 91.2942 30.6111 93.6535 30.7139ZM98.9875 42.835C94.4741 39.7534 86.7808 36.9799 84.8318 33.0765C88.9349 36.569 96.936 39.0343 98.9875 42.835ZM104.219 53.3127C102.885 50.1283 97.9617 47.663 97.8592 45.0949C99.603 47.8684 104.424 50.4365 104.219 53.3127ZM86.5756 38.1098C86.5756 39.1371 81.7545 36.0554 80.4209 34.9255C83.088 35.3363 84.2163 37.3908 86.5756 38.1098ZM15.5918 94.9151C11.2835 90.498 0.923191 82.1775 1.74381 73.4462C2.66701 64.4066 20.0027 59.2706 28.6192 54.4426C37.646 49.3065 45.5445 43.1432 54.5714 44.3759C74.8817 47.0466 82.6777 76.6306 70.1632 93.5797C63.4956 102.722 50.9811 111.042 36.0048 108.885C28.1063 107.755 20.9258 100.154 15.6944 94.8123L15.5918 94.9151ZM43.8007 110.94C47.0832 110.734 50.776 110.734 53.7507 109.604C63.1879 105.906 74.7792 92.347 77.6513 83.9238C83.7034 66.4611 70.4709 45.6085 55.4945 42.116C60.3157 38.1098 68.8297 37.8017 75.3946 35.5418C80.0106 36.6717 83.9086 39.7534 88.9349 41.9105C98.7824 54.2372 120.426 76.2197 105.758 95.0178C93.2432 111.042 63.4956 122.753 43.8007 110.94ZM130.376 124.602C127.299 123.985 123.093 124.191 123.606 122.547C137.762 125.423 157.765 122.136 170.997 125.937C158.688 129.43 141.865 126.964 130.376 124.602ZM174.998 128.608C175.511 129.738 176.536 130.457 176.229 132.511C168.022 132.203 160.944 130.662 152.841 130.251C150.789 130.457 152.02 129.224 153.354 129.635C161.252 129.841 167.407 128.608 174.998 128.608ZM108.527 117.822C120.221 119.876 145.045 117.925 158.688 121.623C141.147 123.061 123.401 120.904 108.527 117.822ZM120.324 124.294C120.324 124.294 125.863 125.526 122.58 125.937C116.118 124.294 110.271 122.034 104.116 120.185C102.988 119.774 102.988 118.336 104.116 119.671C109.04 120.287 115.81 122.855 120.426 124.294H120.324ZM173.972 135.285C167.099 138.983 157.867 135.798 151.712 134.668C133.351 131.279 103.501 129.019 95.6024 117.514C115.195 130.251 147.712 129.532 173.972 135.182V135.285ZM414.209 100.154C402.412 100.976 394.924 103.236 385.385 104.674C341.276 111.248 299.63 123.472 256.239 129.943C256.342 130.662 257.162 131.073 255.726 131.073C255.419 131.073 255.008 131.073 255.213 131.69C229.261 137.442 202.283 137.853 174.69 137.442C175.613 134.668 178.998 134.36 178.998 131.279C178.998 128.916 173.562 124.499 172.125 123.677C164.637 119.157 151.712 117.514 137.454 117.206C120.016 116.795 102.167 115.768 93.3457 109.912C91.089 112.789 89.9607 114.843 91.9096 118.336C97.1411 127.683 112.117 128.916 122.786 130.97C126.068 131.587 135.71 133.436 129.556 133.025C109.45 131.69 86.8833 125.937 70.2657 121.006C68.2142 120.39 64.2137 120.185 63.4956 117.308C80.5235 118.541 96.7308 108.372 106.476 97.3804C123.914 77.6578 100.218 52.3882 91.1916 40.8833C97.0385 47.1494 101.244 55.059 108.835 59.3733C110.579 58.8597 109.04 56.7025 109.861 56.5998C112.117 58.7569 113.554 61.8386 117.759 61.9413C120.016 57.5243 114.682 53.929 115.297 51.361C118.785 54.7508 122.273 58.1406 127.709 59.476C127.812 58.6542 128.632 58.5515 128.838 57.8324C127.607 53.0045 121.862 49.9229 120.734 46.8412C126.889 50.6419 132.018 55.5726 139.916 57.5243C142.173 51.9773 134.274 49.4092 134.069 46.533C140.634 49.512 146.071 56.7025 153.764 56.7025C152.841 49.1011 144.019 46.7385 141.762 42.5269C149.251 45.4031 158.175 54.5453 167.612 55.2644C167.509 48.7929 159.816 47.1494 158.995 43.1432C165.048 47.0466 170.176 55.0589 178.178 54.9562C178.383 49.4092 171.407 48.382 171.305 45.0949C175.1 47.7657 177.972 51.361 183.717 52.08C185.153 51.9773 184.948 49.9229 184.23 49.3065C188.846 50.7446 193.667 57.4216 198.283 55.1617C197.257 48.7929 189.461 46.533 187.922 42.5269C194.898 47.5602 201.668 52.7991 210.49 55.9834C211.72 55.8807 211.618 54.5453 211.515 53.21C216.849 55.5726 219.311 61.0168 226.184 61.7359C227.62 61.7359 227.21 59.8869 227.21 58.3461C232.236 60.0923 234.082 65.2284 240.75 65.3311C243.212 61.7359 237.775 59.0651 238.904 57.0107C244.34 61.0168 248.546 66.3584 256.444 67.7965C256.752 66.9747 257.265 66.3584 257.47 65.5366C256.752 62.2495 252.444 59.8869 252.854 57.3188C257.983 61.5304 263.83 67.7965 270.908 68.0019C272.036 65.8448 270.805 64.3039 270.19 62.4549C275.832 66.0502 280.55 70.57 287.731 72.6244C291.116 70.8781 287.423 65.9475 287.525 64.8175C291.936 67.7965 295.629 71.4945 302.707 71.6999C304.451 70.2618 302.091 66.2556 302.604 66.1529C306.913 69.3373 309.682 74.3707 316.247 75.2952C317.683 74.268 317.581 71.1863 316.145 70.2618C321.068 72.1108 323.53 76.5278 329.685 77.1442C329.993 76.3224 330.505 75.7061 330.711 74.8843C330.3 71.6999 326.402 69.1319 326.608 67.1801C330.403 70.57 333.993 74.268 339.635 75.8088C339.737 74.987 340.558 74.8843 340.763 74.0625C340.968 70.7754 336.352 69.5427 337.276 67.4883C343.328 71.5972 348.046 77.1442 355.945 79.3013C356.253 78.4796 356.765 77.8632 356.971 77.0414C355.74 72.3162 347.739 67.4883 348.354 65.023C355.637 69.1319 361.689 74.5761 369.793 77.8632C369.895 77.0414 370.716 76.9387 370.921 76.117C370.408 71.5972 367.228 69.7482 365.177 66.7692C372.255 68.9264 377.691 78.685 384.872 76.9387C384.872 72.8298 379.743 71.3917 380.256 68.721C386.103 72.0081 390.308 77.1442 398.309 78.3768C399.951 72.0081 393.283 69.6455 390.821 65.742C394.411 67.3856 398.617 69.2346 402.618 71.5972C405.9 73.5489 410.208 79.0959 413.799 75.1925C413.081 72.9326 410.926 72.2135 409.798 70.2618C415.748 71.6999 421.697 78.9932 428.365 76.0142C430.314 73.7543 425.39 71.3917 426.518 69.9536C431.134 73.0353 436.776 77.7605 442.828 77.3496C445.393 72.6244 439.135 69.6455 436.981 66.3584C444.162 68.721 448.162 74.3707 457.189 74.7816C457.292 73.9598 458.112 73.8571 458.317 73.0353C458.625 70.6727 457.292 69.9536 456.573 68.6182C462.215 70.3645 466.216 73.7543 472.268 74.8843C475.756 73.0353 472.063 68.721 472.063 67.6937C474.422 69.44 476.371 71.5972 480.474 71.3917C482.013 69.1319 480.166 66.2556 479.243 64.7148C482.218 65.8448 485.398 68.2074 488.27 67.8992C486.937 71.0836 488.27 70.2618 488.988 73.4462C488.167 76.6306 484.577 80.6367 486.424 82.9993C480.372 87.3136 475.55 92.9633 470.627 98.4076C453.086 93.7851 433.288 98.9212 414.414 100.257L414.209 100.154ZM488.373 82.2803C503.862 81.9721 520.377 84.6429 535.251 86.8C536.276 88.9572 537.405 91.0116 538.225 93.3742C519.249 91.3198 502.836 88.7517 485.706 85.6701C487.655 85.4646 488.065 83.9238 488.373 82.2803ZM578.026 130.354C568.486 132.511 559.049 128.711 550.637 125.423C541.918 122.034 533.609 118.849 524.788 115.973C511.863 111.864 499.143 105.804 486.116 102.414C481.295 101.181 475.448 100.976 473.807 98.2022C474.217 98.2022 474.627 98.2022 474.935 98.2022C492.168 100.667 508.068 106.317 524.172 110.426C539.969 114.535 554.228 122.445 569.101 125.526C572.486 126.245 578.128 124.704 578.128 130.354H578.026ZM555.869 113.097C556.792 113.097 557.715 113.097 558.638 113.097C562.844 117.617 572.691 119.26 573.922 125.013C541.61 115.151 512.376 102.003 475.858 96.6613C478.73 90.3953 488.475 94.8123 495.348 95.1205C519.659 96.2505 541.2 104.16 555.869 113.2V113.097ZM551.355 108.68C533.917 96.2505 506.939 93.6824 480.782 90.2926C488.27 86.6973 499.143 90.2926 509.811 91.8334C520.274 93.3742 533.199 92.5525 540.482 95.6341C546.226 97.9967 548.688 105.393 551.355 108.783V108.68ZM534.122 84.5401C518.941 82.5884 504.99 80.1231 488.988 80.0204C488.578 75.1925 494.527 76.6306 497.81 76.4251C510.324 76.0142 523.967 76.0142 534.02 76.7333C532.891 79.404 532.891 81.9721 534.225 84.5401H534.122ZM534.43 74.4734C520.069 73.6516 505.093 74.987 490.424 73.2407C492.578 69.1319 497.707 70.9809 501.503 70.7754C512.786 69.9536 527.25 68.3101 536.482 66.5638C536.379 69.7482 533.609 70.3645 534.43 74.3707V74.4734ZM490.322 68.8237C490.322 66.3584 488.886 65.4339 488.578 63.2767C509.196 61.2223 530.429 56.8052 550.74 56.2916C538.02 69.1319 514.017 67.3856 490.322 68.8237ZM540.072 54.8535C524.377 56.7025 509.401 58.9624 494.63 60.4005C492.271 60.6059 488.167 62.4549 486.834 59.476C516.992 58.8597 539.149 47.7657 564.383 44.2731C560.895 52.5936 552.176 53.5181 540.174 54.8535H540.072ZM566.434 42.0133C544.072 44.8895 524.993 53.4154 502.221 56.2916C496.887 57.0107 487.552 60.195 484.885 53.3127C512.684 46.1221 544.79 43.0405 571.255 34.6173C570.64 38.0071 568.486 39.9588 566.434 42.0133ZM536.379 40.986C518.325 44.4786 499.451 48.4847 482.628 51.6691C482.013 50.0256 479.551 50.3337 478.628 48.9984C495.861 46.533 511.863 41.8078 529.609 37.1853C536.379 35.4391 543.354 34.72 550.124 32.7683C557.818 30.6111 567.05 26.3995 572.281 28.3512C572.589 29.173 573.102 29.7894 573.41 30.6111C563.562 37.8017 549.612 38.418 536.379 40.986Z" fill="#EEEADF"/>
<path fill-rule="evenodd" clip-rule="evenodd" d="M39.8002 57.627C31.6965 56.3943 25.029 66.6665 28.5166 75.1925C33.1326 86.5946 58.059 82.2803 53.443 67.3856C51.6992 62.0441 45.9548 58.5515 39.8002 57.7297V57.627ZM51.2889 69.0291C52.6224 77.4523 43.8007 80.534 37.646 79.4041C26.978 77.4523 28.0037 60.4005 38.3641 60.4005C44.5188 60.4005 50.4683 63.174 51.3915 69.0291H51.2889Z" fill="#EEEADF"/>
<path fill-rule="evenodd" clip-rule="evenodd" d="M33.9532 68.3101C33.9532 73.138 36.8254 75.1925 41.9543 74.7816C43.3904 73.138 44.5188 70.9809 44.0059 67.4883C41.8517 64.3039 35.6971 65.3311 33.9532 68.3101Z" fill="#EEEADF"/>
</g>
<defs>
<clipPath id="clip0_46_36">
<rect width="580.795" height="140.318" fill="white"/>
</clipPath>
</defs>
</svg>
