<svg width="280" height="94" viewBox="0 0 280 94" fill="none" xmlns="http://www.w3.org/2000/svg">
<g opacity="0.5" clip-path="url(#clip0_52_2629)">
<path fill-rule="evenodd" clip-rule="evenodd" d="M-89.6114 16.0337C-83.9632 16.9283 -75.9043 18.9927 -72.1847 20.5066C-69.0851 21.8141 -66.3299 24.5666 -62.6104 25.9429C-57.5132 27.8697 -51.2451 29.8653 -45.5281 30.8287C-39.4666 31.7921 -30.7877 31.104 -22.7287 31.7233C-20.5934 31.8609 -18.3892 32.8243 -16.0473 32.962C-9.77922 33.5125 -2.06462 32.962 5.64995 33.0996C21.148 33.4437 36.4395 33.2372 50.1466 30.7599C57.379 29.4524 65.3002 28.9019 69.6397 26.7687C74.048 24.6355 77.1477 18.3046 79.2829 14.3133C80.3161 12.3866 82.107 9.84043 83.5535 6.95024C84.7934 4.47294 86.5154 -0.619305 90.0972 2.16216e-05C95.6765 1.03223 99.8781 4.19768 104.562 5.57396C109.59 7.01906 114.343 6.67499 120.611 7.43194C125.433 8.05127 130.323 10.1157 135.489 10.735C139.76 11.2855 144.375 11.1479 148.921 11.4232C169.792 12.7306 189.078 13.4188 208.571 16.9283C215.39 18.1669 222.141 20.5754 229.029 22.227C242.874 25.5989 250.519 28.7643 261.265 34.9576C263.331 36.1274 265.466 37.4349 267.533 38.4671C274.834 42.1142 284.271 45.9678 277.934 56.634C276.349 59.3177 272.63 62.0015 269.875 65.0293C266.775 68.4012 263.951 71.429 261.471 72.6677C254.928 75.9708 247.006 77.003 239.981 79.6179C232.886 82.3705 227.031 84.2284 218.146 85.8112C212.222 86.8434 206.505 89.1143 200.512 89.8712C177.575 92.7614 151.469 95.6516 125.295 92.6238C115.17 91.4539 104.975 88.7702 94.781 87.0498C84.8622 85.4671 75.0124 83.1274 65.438 80.7877C60.6853 79.6179 56.1392 77.7599 51.3176 76.7277C46.4271 75.6267 41.1233 75.0762 36.0262 74.1128C26.0385 72.186 15.8443 69.7775 5.85661 68.5388C1.51717 67.9883 -2.5468 68.2636 -6.47295 67.8507C-13.4987 67.2314 -20.3179 65.7863 -28.8591 66.1992C-44.1505 66.9561 -56.6867 74.1128 -69.9117 77.9664C-76.5242 79.8932 -82.8612 82.3017 -89.4736 84.9854C-95.3285 87.3251 -102.768 91.3851 -110.069 87.4627C-108.485 79.5491 -99.5302 77.4847 -93.6754 72.8741C-91.8845 71.429 -89.7492 68.8829 -87.9583 66.6809C-83.8944 61.7951 -77.213 56.4276 -80.7948 47.0688C-81.8968 44.1787 -85.4097 43.0776 -88.0961 40.9444C-89.4736 39.8434 -90.3002 38.7423 -91.7467 37.8478C-95.053 35.8522 -96.6372 35.0952 -99.4613 31.6545C-101.597 29.0396 -107.865 23.3968 -106.625 18.4422C-105.247 13.0747 -96.8439 14.7262 -89.7492 15.8273L-89.6114 16.0337ZM-101.597 17.2724C-90.3002 20.3002 -78.1084 24.2914 -66.261 25.53C-76.4553 21.47 -86.6496 15.552 -101.597 17.2724ZM-36.5736 32.6179C-39.8799 33.5813 -43.1172 34.6823 -44.9081 37.2972C-45.2525 38.4671 -44.3571 38.4671 -44.2193 39.1552C-44.977 39.3617 -45.5281 39.8434 -45.7347 40.6003C-44.1505 39.981 -43.7372 38.123 -41.533 38.0542C-40.9131 35.7833 -38.9155 34.9576 -37.6757 33.306C-37.1936 33.306 -35.6093 32.7555 -36.5047 32.6179H-36.5736ZM-46.5613 44.3163C-44.1505 43.2841 -41.8085 42.1142 -40.0865 40.3251C-41.4641 40.738 -41.2575 39.4993 -41.9463 39.1552C-43.6683 40.6003 -45.3903 42.183 -46.5613 44.2475V44.3163ZM-35.4715 33.0308C-35.9537 34.5447 -40.7753 36.6091 -40.0865 39.2929C-36.2292 37.6413 -32.6475 35.7833 -29.8923 33.1684C-31.8209 33.4437 -33.8873 31.9298 -35.4715 33.0308ZM-32.6474 39.4305C-34.3695 40.1874 -32.9919 37.1596 -33.3363 36.8155C-36.4359 39.5681 -39.9487 41.9078 -41.3952 46.3119C-37.8135 45.3485 -35.5404 43.0088 -32.3031 41.7013C-32.7163 40.4627 -32.0275 40.1186 -32.6474 39.4305ZM-26.1038 48.858C-19.4913 46.3807 -11.4323 43.3529 -9.02153 37.7101C-11.5701 39.224 -13.7054 41.2197 -16.9428 42.0454C-17.0116 41.4949 -17.5627 41.3573 -17.6315 40.8756C-18.3204 39.224 -15.9784 38.88 -16.805 38.2606C-19.698 39.9122 -22.8664 43.0776 -26.2416 42.8712C-26.2416 42.3895 -26.3793 42.0454 -26.586 41.7702C-26.0349 40.0498 -24.864 38.9488 -23.8996 37.7101C-28.859 40.5315 -33.8873 43.2841 -36.5047 48.6516C-33.6806 47.9634 -30.8566 46.8624 -28.1702 45.4861C-25.7594 44.2475 -23.4175 41.6325 -21.0067 42.6647C-22.3843 45.0044 -25.4839 45.6238 -26.035 48.858H-26.1038ZM-6.33519 50.4407C-0.411484 49.7526 4.27235 43.7658 9.50725 44.798C8.68068 47.2753 5.85658 47.6194 4.54787 49.5462C9.0251 46.5871 16.1886 44.4539 18.5994 40.5315C16.2575 41.9766 14.3289 43.9722 11.0226 44.4539C9.0251 42.6647 12.8824 40.6691 12.2625 39.224C9.36952 40.8068 4.1346 46.656 1.31053 43.4217C2.20595 41.2885 3.79018 39.9122 5.1678 38.2606C2.27483 39.3617 0.552841 41.6325 -2.75343 42.183C-2.82231 41.6325 -3.37337 41.4949 -3.44225 41.0132C-3.92439 39.9122 -2.1335 39.1552 -3.02895 38.8112C-7.91945 42.2519 -13.6365 44.798 -16.3917 50.4407C-9.71031 49.4773 -6.19743 43.2841 -0.135971 43.0088C-1.99574 45.6238 -5.16423 46.8624 -6.26631 50.3031L-6.33519 50.4407ZM-29.5478 35.3705C-28.2391 34.9576 -27.2748 34.2006 -26.5171 33.2372C-28.308 33.2372 -28.6524 34.5447 -29.5478 35.3705ZM-25.7594 33.5813C-24.7951 36.3339 -30.0989 37.9166 -30.03 39.8434C-27.2059 37.2972 -22.8665 36.4027 -20.5246 33.306C-22.1777 33.5125 -24.7262 32.6867 -25.7594 33.5813ZM-19.4224 33.7189C-20.1113 37.5037 -23.7619 38.123 -24.864 41.4261C-20.6623 39.3617 -16.5295 37.0908 -13.0855 34.2006C-15.2207 34.063 -17.8382 34.3382 -19.4224 33.6501V33.7189ZM-15.8407 40.1874C-12.2589 38.6047 -9.02153 36.6091 -5.9908 34.4071C-12.0523 33.4437 -13.4988 37.2972 -15.8407 40.1874ZM-8.33272 40.738C-4.81984 38.88 -1.1003 37.3661 1.51714 34.6135C-4.54433 33.5125 -7.23064 37.9166 -8.33272 40.738ZM2.96364 35.0264C3.17027 36.8156 -1.65135 38.5359 -1.30693 40.5315C1.44826 38.1918 7.09645 36.8156 8.54295 34.4071C7.50972 35.5081 3.99684 33.9254 2.96364 35.0264ZM11.2293 34.8199C8.81847 37.6413 4.1346 40.1186 3.58354 43.6281C8.19853 40.5315 13.5023 38.1918 17.6351 34.6135C15.7065 34.8888 13.6401 35.0264 11.2982 34.8199H11.2293ZM19.8393 34.6823C17.8418 37.7101 13.0201 39.7746 12.538 43.0776C14.5355 41.5637 17.2907 40.2563 19.7704 38.7423C21.9746 37.4349 24.5231 34.2694 26.934 35.921C25.0053 37.9166 19.6326 40.1874 20.4592 42.5271C24.5231 39.6369 29.6203 37.8478 32.9954 34.2006C28.656 34.3382 24.7298 34.9576 19.9082 34.6135L19.8393 34.6823ZM27.5539 39.2929C23.0078 42.94 15.2243 45.2797 14.1911 51.3353C18.3928 48.7892 22.319 46.1054 26.7273 43.7658C26.1074 41.5637 28.036 40.1186 27.5539 39.2929ZM35.7506 39.1552C30.7224 41.5637 26.3829 46.7248 23.9032 50.4407C27.485 47.9634 30.929 45.3485 34.9241 43.2153C34.0975 41.6325 35.1307 40.2563 35.7506 39.0864V39.1552ZM28.5871 42.3207C32.8577 39.4993 37.266 36.8844 41.1233 33.6501C35.0618 33.0308 29.9647 38.0542 28.5871 42.3207ZM36.095 41.3573C41.1922 38.88 45.2561 35.3705 50.1466 32.6867C42.432 32.4114 39.539 37.1596 36.095 41.3573ZM53.1085 48.858C58.7567 46.5871 62.4073 40.2563 68.2621 39.4993C65.3002 43.0088 61.3741 45.4861 59.4454 50.0967C67.4355 47.9634 70.3974 40.6003 77.2854 37.4349C75.4256 41.839 69.3642 43.9034 69.1575 48.7892C72.8771 45.5549 77.6987 42.3207 81.3493 39.0176C82.5203 37.9854 83.3469 35.2328 85.5511 36.1274C83.4846 40.2563 78.9385 41.7014 77.8365 46.7936C85.9643 44.5915 91.1304 37.2972 97.5362 34.5447C94.5744 39.224 88.7884 40.9444 87.1353 47C94.7121 45.0044 99.1893 38.6047 104.631 34.3382C105.595 33.5813 107.248 32.4114 108.764 32.962C105.664 36.7467 101.256 39.0864 99.1893 43.9722C102.633 42.6647 105.94 40.5315 109.039 38.2606C111.657 36.265 114.894 31.9986 117.787 32.8243C114.55 36.3339 110.968 39.4993 108.557 43.7658C116.96 40.8068 122.471 32.8243 129.428 29.7277C126.604 34.4071 121.507 36.7467 119.44 42.183C122.884 40.3939 126.673 38.4671 129.703 35.7145C132.527 33.1684 135.351 27.7321 138.864 28.489C135.627 32.4114 131.15 34.9576 128.877 39.8434C132.458 38.2606 135.558 35.7145 138.727 33.3748C141.826 31.0352 144.788 28.0762 148.232 27.2504C146.372 31.0352 141.895 32.0674 139.829 35.6457C147.13 32.8243 152.985 26.4246 160.286 24.9107C157.255 29.1084 152.158 31.1728 149.196 35.5081C152.296 33.9942 155.602 32.0674 158.702 30.1406C161.733 28.2138 164.694 24.9107 167.794 25.4612C165.383 28.5579 161.319 29.9341 158.633 32.6867C163.317 30.5535 166.968 27.388 171.169 24.7731C170.343 24.8419 169.723 24.6355 169.723 24.0161C170.067 22.7087 172.409 21.5388 172.065 20.7131C169.241 22.0893 167.174 24.2914 163.73 24.9795C162.904 23.3968 161.801 24.2226 159.666 24.1538C159.666 23.6032 159.804 22.7775 159.322 22.6399C158.082 23.8785 156.222 24.4978 154.431 25.1172C154.087 24.6355 153.811 24.0161 153.329 23.6032C152.709 24.4978 151.676 24.9795 150.298 25.0483C149.541 24.9107 149.954 23.6721 149.196 23.5344C148.508 24.3602 146.717 25.53 145.821 24.9107C145.684 21.6765 149.128 20.3002 149.334 18.6486C145.477 21.2636 142.584 24.8419 137.9 26.6311C136.385 25.53 138.52 23.6721 137.969 22.9151C135.971 24.9795 134.181 27.388 130.736 28.0074C129.634 27.3192 131.288 25.7365 130.392 25.3924C129.359 26.8375 127.775 27.7321 125.846 28.2826C124.744 26.6999 126.259 25.0483 127.086 24.2226C123.297 25.9429 121.713 29.7965 117.236 30.6911C116.685 30.2094 116.754 28.5579 117.236 28.0762C114.55 28.9707 113.241 31.3104 110.072 31.6545C108.764 30.6911 110.21 28.9707 109.797 28.2826C108.075 29.9341 106.353 31.5169 103.735 32.2738C103.667 31.7233 103.116 31.6545 102.978 31.1728C103.184 29.246 105.526 27.4568 105.32 26.3558C102.84 28.9019 100.498 31.5169 96.9163 32.8932C96.1586 32.7555 96.5719 31.5169 95.8142 31.3792C94.8499 32.5491 93.4723 33.306 92.0258 33.9254C90.9926 33.4437 91.6814 31.5857 91.337 31.3104C89.615 32.8243 88.0307 34.4759 85.2755 34.8888C84.2423 35.0264 84.9311 33.5125 84.1734 33.3748C82.9336 34.4759 81.8315 35.7833 79.6273 35.8522C78.112 35.0952 79.834 33.306 79.3518 32.8243C77.5609 34.1318 76.5277 36.265 73.6348 36.4027C72.6704 35.0952 74.048 33.7189 74.4613 32.6867C70.8795 34.3382 68.6754 37.2972 64.9559 38.8112C64.8181 38.123 63.5094 38.4671 63.8538 37.2972C61.7185 37.8478 61.2363 40.1186 58.55 40.1874C58.4811 39.6369 57.9301 39.5681 57.8612 39.0864C57.5857 37.9854 59.5143 37.2972 58.6878 36.8844C56.6214 38.4671 55.3126 40.7379 51.8686 40.8068C50.6977 39.3617 52.9707 37.7789 52.3508 37.0908C49.3201 39.1552 46.9092 41.839 42.8453 42.8712C41.1922 40.0498 46.0138 37.2284 45.6005 36.9532C43.2586 38.6047 41.261 40.6003 38.3681 41.6325C39.0569 45.6238 32.5133 47.1377 32.9266 50.8536C35.4062 49.1333 38.2303 47.2753 41.2611 45.4173C43.8096 43.8346 47.1159 40.738 50.2844 42.2519C47.9425 45.4173 42.9831 47.8946 42.5698 51.7482C45.1183 49.5462 48.4246 47.9634 51.3176 45.9678C54.2105 43.9722 56.828 40.8756 60.4098 40.9444C58.6878 44.3851 54.6927 45.3485 53.1085 48.9956V48.858ZM179.228 24.9107C179.09 24.2914 179.779 23.9473 179.228 23.8097C177.713 24.7731 176.335 25.8741 173.58 25.53C173.58 24.5666 173.856 23.0527 172.891 24.0161C171.789 24.2914 173.718 24.5666 173.236 25.53C169.585 28.5579 166.003 31.7233 162.559 35.0264C168.552 32.1362 172.271 26.8375 179.228 24.9795V24.9107ZM169.654 35.5081C174.407 31.5857 182.397 30.9664 184.876 24.6355C178.402 26.5623 172.409 30.8975 169.654 35.5081ZM167.105 18.2358C165.246 19.4744 163.041 20.369 161.801 22.227C163.73 21.3324 167.036 19.8185 167.105 18.2358ZM132.252 20.8507C131.356 22.3646 126.741 25.53 128.05 25.5989C131.356 22.7087 135.076 20.2314 138.313 17.2724C137.005 17.6164 135.558 17.6852 134.181 17.9605C134.387 19.1303 134.456 18.7174 134.181 19.8185C133.492 20.1625 133.078 20.7131 132.252 20.9195V20.8507ZM119.027 28.0074C123.848 24.9107 128.119 21.2636 133.078 18.2358C130.943 18.511 128.67 18.7174 127.086 19.612C127.499 19.6808 127.499 20.2314 127.43 20.7819C123.986 22.571 121.575 25.3924 119.027 28.0762V28.0074ZM111.106 29.6589C116.409 26.9063 122.402 22.9151 125.57 19.1991C121.507 20.5066 116.478 20.9195 112.07 21.8829C110.141 24.8419 105.32 26.8375 105.182 30.2782C106.973 28.489 109.452 27.2504 111.657 25.5989C113.585 24.1538 115.445 21.1259 118.131 21.6765C116.341 24.9107 112.552 26.0117 111.243 29.7277L111.106 29.6589ZM132.872 25.6677C136.178 22.9151 139.209 19.8185 142.791 17.3412C142.859 16.8595 143.41 16.5842 142.446 16.5842C138.864 18.9239 134.387 22.4334 132.872 25.6677ZM139.622 24.3602C142.997 21.3324 148.37 18.511 150.643 15.6208C144.581 15.7584 140.862 20.4378 139.622 24.3602ZM80.7294 33.7877C85.2066 31.4481 88.6507 28.0762 92.5079 25.1172C85.9643 25.2548 84.1046 30.347 80.7294 33.7877ZM84.3112 26.0806C81.0049 28.145 76.8033 31.4481 75.4945 34.4759C78.0431 31.5857 82.8647 28.9707 84.3112 26.0806ZM86.3776 32.8243C90.6482 30.5535 95.7453 27.044 98.1561 24.1538C92.8524 25.5989 89.8216 29.4524 86.3776 32.8243ZM93.5412 31.104C97.1229 29.246 99.7404 26.3558 102.702 23.8785C98.7761 25.3924 96.3652 28.489 93.5412 31.104ZM98.7761 30.4847C101.325 27.5257 106.146 24.9107 107.937 22.5022C104.218 24.2226 100.36 27.8009 98.7761 30.4847ZM57.999 31.0352C56.1392 31.7921 53.4529 31.6545 51.5931 32.4114C51.4553 35.7145 44.774 37.5037 44.7051 40.8068C47.6669 38.2606 52.4885 35.8522 55.7259 33.5813C56.7591 32.8932 58.3434 31.6545 57.999 31.0352ZM53.3151 38.8112C57.5857 36.265 61.7874 33.6501 64.7492 29.7277C59.5143 31.2416 56.5525 35.164 53.3151 38.8112ZM67.7799 29.0396C66.1957 32.8931 60.9608 34.8888 60.0654 38.1918C63.5094 35.2328 67.5044 32.962 70.3285 29.4524C69.3642 29.7965 68.1243 30.0718 67.7111 29.0396H67.7799ZM66.4712 36.4715C70.1219 32.962 76.8033 30.4847 79.3518 27.044C73.0837 27.8697 68.8131 32.8243 66.4712 36.4715ZM74.5302 26.5623C78.7319 26.1494 82.5892 25.3236 86.171 24.2226C82.107 24.2914 80.8672 21.7453 77.6298 21.0571C77.0099 22.9151 73.7725 25.8053 74.5302 26.5623ZM78.8008 19.9561C84.5179 23.8097 92.1635 25.0483 99.6715 22.2958C92.6457 20.369 87.4797 16.653 81.556 13.694C80.6606 15.8273 79.3518 17.5476 78.8008 19.9561ZM101.945 21.6076C101.945 22.0893 101.256 21.9517 101.187 22.2958C106.491 21.47 111.726 20.6442 116.616 19.268C103.391 18.1669 95.1254 12.2489 84.3112 8.80822C83.8979 10.3909 82.9336 11.492 82.3137 12.8683C89.1328 15.4832 93.7478 20.1625 101.945 21.5388V21.6076ZM87.0664 3.71598C86.5154 5.16108 85.0689 5.71159 85.1378 7.77601C97.8117 12.9371 115.652 22.2958 131.632 16.309C114.825 14.5886 99.5337 10.4598 87.0664 3.71598ZM114.619 8.80822C105.113 7.77601 96.0208 2.3397 89.4083 1.51393C88.8573 1.51393 88.5818 1.65156 88.3063 1.858C90.166 5.36752 95.5387 6.67499 100.085 8.12008C104.562 9.56518 109.108 11.7672 113.448 12.9371C120.611 14.8639 129.152 12.2489 135.076 16.4466C142.791 14.6574 149.816 14.5198 158.289 13.6252C143.204 13.6252 129.152 10.4598 114.687 8.87704L114.619 8.80822ZM148.645 22.2958C151.332 19.5432 154.845 17.8229 157.806 15.4144C152.916 15.4832 150.23 19.9561 148.645 22.2958ZM152.02 23.1215C155.602 20.5066 159.184 17.8229 162.628 15.1391C158.151 16.5154 153.467 19.8185 152.02 23.1215ZM155.74 22.8463C160.355 20.5066 166.141 17.41 169.034 14.5886C162.972 15.6208 159.666 19.5432 155.74 22.8463ZM175.715 15.1391C173.167 17.0659 170.48 18.7863 168.138 20.9195C167.794 20.9195 167.381 20.9195 167.036 20.9195C166.692 21.5388 166.141 22.0893 165.521 22.3646C164.763 23.1904 165.659 23.2592 165.865 22.3646C170.756 20.3002 175.095 17.7541 179.504 15.2079C178.264 15.2079 177.024 15.2079 175.784 15.1391H175.715ZM183.568 15.6896C180.193 16.9971 177.437 18.9239 174.82 21.0571C174.407 21.4012 172.134 21.7453 173.304 22.5022C174.958 21.6765 177.024 20.0937 178.953 18.9239C180.744 17.8229 184.05 16.9283 183.499 15.6896H183.568ZM175.509 24.0849C180.881 22.1582 185.014 18.9927 189.905 16.5842C183.843 16.309 179.917 21.4012 175.509 24.0849ZM192.109 16.9971C188.94 19.8185 183.223 21.9517 181.432 24.9795C186.185 22.227 191.351 19.8185 196.173 17.1347C194.795 17.1347 193.418 17.0659 192.04 17.0659L192.109 16.9971ZM196.999 17.4788C196.999 17.4788 197.55 17.8917 197.344 18.2358C195.277 21.5388 187.012 21.8829 185.565 26.5623C192.178 24.5666 196.724 20.369 202.234 17.2035C200.306 17.9605 198.446 16.7218 196.999 17.4788ZM187.563 36.6779C192.66 34.1318 197.481 31.3104 201.959 28.0762C203.405 27.388 199.066 29.3148 197.826 29.4524C197.826 28.7643 196.586 29.1772 196.724 28.2826C196.242 26.8375 198.308 26.1494 197.55 25.6677C195.415 26.7687 193.831 28.4202 190.387 28.145C189.974 27.1128 191.144 25.9429 190.387 25.8741C189.491 26.9063 186.53 29.5213 186.598 28.0074C184.256 30.8975 181.295 33.1684 178.953 36.0586C184.739 33.9942 190.249 27.5945 196.311 28.2826C193.624 31.3792 189.216 32.5491 187.494 36.6779H187.563ZM211.326 27.5257C210.775 28.0762 210.018 28.4202 209.053 28.5579C208.916 29.4524 209.742 29.3836 209.398 30.4158C206.367 32.4803 202.854 36.0586 202.441 39.5681C205.678 36.7467 208.847 33.7877 211.602 30.4158C208.916 30.2782 211.877 27.5945 211.326 27.4568V27.5257ZM206.78 29.6589C206.023 30.347 204.645 29.8653 203.818 29.5901C200.719 31.7233 196.999 35.164 195.759 37.9854C199.272 35.3016 204.301 32.205 206.78 29.6589ZM203.75 17.2724C200.994 21.5388 195.002 22.3646 192.315 26.6999C198.928 25.0483 204.025 19.8185 210.431 19.268C209.191 20.8507 206.643 22.2958 204.369 23.6032C202.303 24.7731 198.721 25.6677 199.41 27.5945C205.265 25.3236 210.982 22.8463 216.424 20.1625C212.773 18.7174 208.02 18.2358 203.818 17.2724H203.75ZM217.112 20.5754C214.908 24.3602 207.813 25.0483 206.436 28.5579C211.258 26.2182 216.768 24.5666 220.832 21.4012C219.11 21.6076 218.697 20.5066 217.112 20.5754ZM213.531 28.6955C216.561 26.6311 221.727 24.7731 223.036 22.1582C220.281 24.4978 214.908 26.1494 213.531 28.6955ZM210.018 35.7145C210.913 33.5813 214.219 31.9298 214.288 30.2094C213.117 32.0674 209.88 33.7877 210.018 35.7145ZM221.865 25.53C221.865 26.2182 225.102 24.1538 225.998 23.3968C224.207 23.6721 223.449 25.0483 221.865 25.53ZM269.53 63.5842C272.423 60.6252 279.38 55.0513 278.829 49.2021C278.209 43.1464 266.568 39.7057 260.782 36.4715C254.721 33.0308 249.417 28.9019 243.356 29.7277C229.717 31.5169 224.483 51.3353 232.886 62.6896C237.363 68.8141 245.767 74.388 255.823 72.9429C261.127 72.186 265.948 67.0937 269.461 63.5154L269.53 63.5842ZM250.588 74.3192C248.384 74.1816 245.904 74.1816 243.907 73.4246C237.57 70.9473 229.786 61.8639 227.858 56.2211C223.794 44.5227 232.679 30.5535 242.736 28.2138C239.498 25.53 233.781 25.3236 229.373 23.8097C226.273 24.5666 223.656 26.6311 220.281 28.0762C213.668 36.3339 199.135 51.0601 208.984 63.653C217.388 74.388 237.363 82.2328 250.588 74.3192ZM192.453 83.4715C194.52 83.0586 197.344 83.1962 196.999 82.0952C187.494 84.022 174.062 81.82 165.177 84.3661C173.442 86.7058 184.739 85.0542 192.453 83.4715ZM162.49 86.1552C162.146 86.9122 161.457 87.3939 161.664 88.7702C167.174 88.5637 171.927 87.5315 177.368 87.2563C178.746 87.3939 177.919 86.5681 177.024 86.8434C171.72 86.981 167.587 86.1552 162.49 86.1552ZM207.125 78.9298C199.272 80.306 182.603 78.9986 173.442 81.4759C185.221 82.4393 197.137 80.9942 207.125 78.9298ZM199.203 83.2651C199.203 83.2651 195.484 84.0908 197.688 84.3661C202.028 83.2651 205.954 81.7511 210.087 80.5125C210.844 80.2372 210.844 79.2738 210.087 80.1684C206.78 80.5813 202.234 82.3017 199.135 83.2651H199.203ZM163.179 90.6282C167.794 93.1055 173.993 90.9722 178.126 90.2153C190.456 87.9444 210.5 86.4305 215.804 78.7233C202.647 87.2563 180.812 86.7746 163.179 90.5593V90.6282ZM1.86156 67.0937C9.78276 67.6443 14.8111 69.1582 21.2169 70.1216C50.8354 74.5257 78.8008 82.7145 107.937 87.0498C107.868 87.5315 107.317 87.8068 108.282 87.8068C108.488 87.8068 108.764 87.8068 108.626 88.2197C126.053 92.0732 144.168 92.3485 162.697 92.0732C162.077 90.2153 159.804 90.0088 159.804 87.9444C159.804 86.3617 163.455 83.4027 164.419 82.8522C169.447 79.8243 178.126 78.7233 187.7 78.5169C199.41 78.2416 211.395 77.5535 217.319 73.6311C218.834 75.5579 219.592 76.9342 218.283 79.2738C214.77 85.5359 204.714 86.3617 197.55 87.738C195.346 88.1508 188.871 89.3895 193.004 89.1142C206.505 88.2197 221.658 84.3661 232.817 81.063C234.195 80.6501 236.881 80.5125 237.363 78.5857C225.929 79.4115 215.046 72.5989 208.502 65.2358C196.793 52.0235 212.704 35.0952 218.765 27.388C214.839 31.5857 212.015 36.8844 206.918 39.7746C205.747 39.4305 206.78 37.9854 206.229 37.9166C204.714 39.3617 203.75 41.4261 200.925 41.4949C199.41 38.5359 202.992 36.1274 202.579 34.4071C200.237 36.6779 197.895 38.9488 194.244 39.8434C194.175 39.2929 193.624 39.224 193.486 38.7423C194.313 35.5081 198.17 33.4437 198.928 31.3792C194.795 33.9254 191.351 37.2284 186.047 38.5359C184.532 34.8199 189.836 33.0996 189.974 31.1728C185.565 33.1684 181.915 37.9854 176.749 37.9854C177.368 32.8931 183.292 31.3104 184.808 28.489C179.779 30.4158 173.787 36.5403 167.45 37.022C167.519 32.6867 172.685 31.5857 173.236 28.9019C169.172 31.5169 165.728 36.8844 160.355 36.8155C160.217 33.0996 164.901 32.4114 164.97 30.2094C162.421 31.9986 160.493 34.4071 156.635 34.8888C155.671 34.8199 155.809 33.4437 156.291 33.0308C153.191 33.9942 149.954 38.4671 146.854 36.9532C147.543 32.6867 152.778 31.1728 153.811 28.489C149.128 31.8609 144.581 35.3705 138.658 37.5037C137.831 37.4349 137.9 36.5403 137.969 35.6457C134.387 37.2284 132.734 40.8756 128.119 41.3573C127.155 41.3573 127.43 40.1186 127.43 39.0864C124.055 40.2563 122.815 43.697 118.338 43.7658C116.685 41.3573 120.336 39.5681 119.578 38.1918C115.927 40.8756 113.103 44.4539 107.799 45.4173C107.593 44.8668 107.248 44.4539 107.111 43.9034C107.593 41.7014 110.486 40.1186 110.21 38.3983C106.766 41.2197 102.84 45.4173 98.0872 45.5549C97.3296 44.1098 98.1561 43.0776 98.5694 41.839C94.781 44.2475 91.6125 47.2753 86.7909 48.6516C84.5179 47.4817 86.9975 44.1787 86.9286 43.4217C83.9668 45.4173 81.4871 47.8946 76.7344 48.0322C75.5634 47.0688 77.1477 44.3851 76.8033 44.3163C73.9103 46.4495 72.0505 49.8214 67.6422 50.4407C66.6779 49.7526 66.7467 47.6882 67.7111 47.0688C64.4048 48.3075 62.7517 51.2665 58.6189 51.6794C58.4122 51.1289 58.0678 50.716 57.9301 50.1655C58.2056 48.0322 60.823 46.3119 60.6853 45.0044C58.1367 47.2753 55.7259 49.7526 51.9375 50.7848C51.8686 50.2343 51.3176 50.1655 51.1798 49.615C51.042 47.4129 54.1417 46.5872 53.5217 45.2109C49.4578 47.9634 46.2893 51.6794 40.9855 53.1245C40.7789 52.574 40.4345 52.1611 40.2967 51.6106C41.1233 48.4451 46.496 45.2109 46.0827 43.5593C41.1922 46.3119 37.1283 49.959 31.6867 52.1611C31.6178 51.6106 31.0668 51.5418 30.929 50.9912C31.2734 47.9634 33.4087 46.7248 34.7863 44.7292C30.0336 46.1743 26.3829 52.7116 21.5613 51.5418C21.5613 48.7892 25.0053 47.8258 24.6609 46.0366C20.7348 48.2387 17.9106 51.6794 12.538 52.5052C11.4359 48.2387 15.9131 46.656 17.5663 44.041C15.1554 45.1421 12.3313 46.3807 9.64503 47.9634C7.44084 49.2709 4.54787 52.9869 2.13707 50.3719C2.61925 48.858 4.06572 48.3763 4.82341 47.0688C0.828354 48.0322 -3.1667 52.918 -7.64391 50.9224C-8.95262 49.4085 -5.64641 47.8258 -6.4041 46.8624C-9.50371 48.9268 -13.2921 52.0923 -17.356 51.817C-19.078 48.6516 -14.8763 46.656 -13.4299 44.4539C-18.2515 46.0366 -20.9378 49.8214 -26.9993 50.0967C-27.0682 49.5462 -27.6192 49.4773 -27.757 48.9268C-27.9636 47.3441 -27.0681 46.8624 -26.586 45.9678C-30.3744 47.1377 -33.0607 49.4085 -37.1247 50.1655C-39.4666 48.9268 -36.9869 46.0366 -36.9869 45.3485C-38.5712 46.5183 -39.8799 47.9634 -42.6351 47.8258C-43.6683 46.3119 -42.4285 44.3851 -41.8085 43.3529C-43.8061 44.1098 -45.9413 45.6926 -47.87 45.4861C-46.9745 47.6194 -47.87 47.0688 -48.3521 49.2021C-47.8011 51.3353 -45.3903 54.0191 -46.6301 55.6018C-42.5662 58.492 -39.3288 62.2768 -36.0226 65.9239C-24.2441 62.8273 -10.9502 66.268 1.72377 67.1626L1.86156 67.0937ZM-47.9389 55.1201C-58.3398 54.9137 -69.4295 56.7028 -79.4172 58.1479C-80.1059 59.593 -80.8636 60.9693 -81.4147 62.552C-68.6718 61.1757 -57.651 59.4554 -46.148 57.391C-47.4567 57.2533 -47.7322 56.2211 -47.9389 55.1201ZM-108.14 87.3251C-101.734 88.7702 -95.3974 86.2241 -89.7492 84.022C-83.8944 81.7511 -78.315 79.6179 -72.3914 77.6911C-63.7124 74.9385 -55.1713 70.8785 -46.4235 68.6077C-43.1861 67.7819 -39.26 67.6443 -38.1579 65.7863C-38.4334 65.7863 -38.7089 65.7863 -38.9155 65.7863C-50.4874 67.4378 -61.1639 71.2226 -71.9781 73.9752C-82.5856 76.7277 -92.16 82.0264 -102.148 84.0908C-104.421 84.5725 -108.209 83.5403 -108.209 87.3251H-108.14ZM-93.2621 75.7643C-93.882 75.7643 -94.5019 75.7643 -95.1218 75.7643C-97.9459 78.7921 -104.558 79.8932 -105.385 83.7467C-83.6877 77.1406 -64.0568 68.3324 -39.5355 64.7541C-41.4641 60.5564 -48.0078 63.5154 -52.6227 63.7219C-68.9473 64.4788 -83.4122 69.7775 -93.2621 75.8331V75.7643ZM-90.2313 72.8053C-78.5217 64.4788 -60.4062 62.7585 -42.8417 60.4876C-47.87 58.0791 -55.1713 60.4876 -62.3349 61.5198C-69.3606 62.552 -78.0395 62.0015 -82.93 64.0659C-86.7873 65.6487 -88.4404 70.6033 -90.2313 72.8741V72.8053ZM-78.6595 56.634C-68.4652 55.3265 -59.0975 53.675 -48.3521 53.6062C-48.0766 50.3719 -52.0717 51.3353 -54.2758 51.1977C-62.6792 50.9224 -71.8403 50.9224 -78.5906 51.4041C-77.8329 53.1933 -77.8329 54.9136 -78.7283 56.634H-78.6595ZM-78.8661 49.8902C-69.2229 49.3397 -59.1664 50.2343 -49.3165 49.0645C-50.763 46.3119 -54.207 47.5505 -56.7555 47.4129C-64.3324 46.8624 -74.0445 45.7614 -80.2437 44.5915C-80.1748 46.7248 -78.315 47.1377 -78.8661 49.8214V49.8902ZM-49.2476 46.1054C-49.2476 44.4539 -48.2833 43.8346 -48.0766 42.3895C-61.9216 41.0132 -76.1798 38.0542 -89.8181 37.7101C-81.2769 46.3119 -65.1589 45.1421 -49.2476 46.1054ZM-82.6545 36.7467C-72.1159 37.9854 -62.0593 39.4993 -52.1406 40.4627C-50.5563 40.6003 -47.8011 41.839 -46.9057 39.8434C-67.1564 39.4305 -82.0346 31.9986 -98.9791 29.6589C-96.6372 35.2328 -90.7824 35.8522 -82.7234 36.7467H-82.6545ZM-100.357 28.145C-85.3409 30.0718 -72.5291 35.7833 -57.2377 37.7101C-53.6559 38.1918 -47.3878 40.3251 -45.5969 35.7145C-64.2635 30.8975 -85.823 28.8331 -103.594 23.1904C-103.181 25.4612 -101.734 26.7687 -100.357 28.145ZM-80.1748 27.4568C-68.0519 29.7965 -55.3779 32.4803 -44.0816 34.6135C-43.6683 33.5125 -42.0152 33.7189 -41.3952 32.8243C-52.9671 31.1728 -63.7124 28.0073 -75.6287 24.9107C-80.1749 23.7409 -84.8587 23.2592 -89.4048 21.9517C-94.5708 20.5066 -100.77 17.6852 -104.283 18.9927C-104.49 19.5432 -104.834 19.9561 -105.041 20.5066C-98.4281 25.3236 -89.0604 25.7365 -80.1748 27.4568Z" fill="#06385E"/>
<path fill-rule="evenodd" clip-rule="evenodd" d="M253.274 38.6047C258.716 37.7789 263.193 44.6604 260.851 50.3719C257.752 58.0103 241.014 55.1201 244.113 45.1421C245.284 41.5637 249.142 39.224 253.274 38.6735V38.6047ZM245.56 46.2431C244.664 51.8858 250.588 53.9503 254.721 53.1933C261.884 51.8858 261.196 40.4627 254.239 40.4627C250.106 40.4627 246.111 42.3207 245.491 46.2431H245.56Z" fill="#06385E"/>
<path fill-rule="evenodd" clip-rule="evenodd" d="M257.201 45.7614C257.201 48.9956 255.272 50.3719 251.828 50.0966C250.864 48.9956 250.106 47.5505 250.45 45.2108C251.897 43.0776 256.03 43.7658 257.201 45.7614Z" fill="#06385E"/>
</g>
<defs>
<clipPath id="clip0_52_2629">
<rect width="390" height="94" fill="white" transform="matrix(-1 0 0 1 280 0)"/>
</clipPath>
</defs>
</svg>
