<svg width="46" height="79" viewBox="0 0 46 79" fill="none" xmlns="http://www.w3.org/2000/svg">
<path opacity="0.5" d="M30.95 0.0999966V63.55C30.95 68.35 32.05 71.6 34.25 73.3C36.45 75 40.15 75.85 45.35 75.85V79C43.35 78.9 40.4 78.8 36.5 78.7C32.7 78.5 28.75 78.4 24.65 78.4C20.05 78.4 15.6 78.5 11.3 78.7C7.1 78.8 3.85 78.9 1.55 79V75.85C6.55 75.85 10.45 75.05 13.25 73.45C16.05 71.75 17.45 68.45 17.45 63.55V27.25C17.45 22.45 16.95 18.9 15.95 16.6C14.95 14.3 13.15 12.8 10.55 12.1C8.05 11.4 4.55 11.05 0.0500003 11.05V7.75C7.25 7.55 13.25 6.9 18.05 5.79999C22.85 4.7 27.15 2.8 30.95 0.0999966Z" fill="#EEEADF"/>
</svg>
