<svg width="57" height="103" viewBox="0 0 57 103" fill="none" xmlns="http://www.w3.org/2000/svg">
<path opacity="0.5" d="M29.05 0.649993C33.25 0.649993 36.95 1.34999 40.15 2.74999C43.45 4.04999 46 6 47.8 8.6C49.7 11.1 50.65 14.15 50.65 17.75C50.65 21.65 49.55 25.25 47.35 28.55C45.25 31.75 42.5 34.55 39.1 36.95C35.7 39.25 32.1 41.1 28.3 42.5C33 42.6 37.45 43.5 41.65 45.2C45.85 46.8 49.3 49.25 52 52.55C54.7 55.85 56.05 60.1 56.05 65.3C56.05 69.9 54.95 74.15 52.75 78.05C50.65 81.85 47.7 85.25 43.9 88.25C40.2 91.35 35.95 93.95 31.15 96.05C26.35 98.25 21.3 99.9 16 101C10.8 102.1 5.65 102.65 0.55 102.65V99.95C5.65 99.85 10.65 99 15.55 97.4C20.45 95.9 24.85 93.7 28.75 90.8C32.75 87.9 35.9 84.3 38.2 80C40.6 75.7 41.8 70.8 41.8 65.3C41.8 59.4 40.35 54.55 37.45 50.75C34.65 46.85 30.8 44.7 25.9 44.3C24.4 44.9 23.05 45.45 21.85 45.95C20.75 46.35 19.75 46.55 18.85 46.55C18.05 46.55 17.45 46.4 17.05 46.1C16.65 45.7 16.45 45.2 16.45 44.6C16.45 43.7 16.85 43 17.65 42.5C18.45 42 19.35 41.75 20.35 41.75C21.15 41.75 21.95 41.85 22.75 42.05C23.65 42.15 24.6 42.25 25.6 42.35C29.7 39.25 32.65 35.85 34.45 32.15C36.25 28.35 37.15 24.55 37.15 20.75C37.15 16.05 35.95 12.65 33.55 10.55C31.25 8.35 28.1 7.25 24.1 7.25C20 7.25 16.2 8.35 12.7 10.55C9.3 12.75 6.45 16.1 4.15 20.6L1.6 19.4C3.1 16.1 5.05 13.05 7.45 10.25C9.85 7.35 12.8 5.05 16.3 3.34999C19.9 1.54999 24.15 0.649993 29.05 0.649993Z" fill="#EEEADF"/>
</svg>
