<svg width="59" height="81" viewBox="0 0 59 81" fill="none" xmlns="http://www.w3.org/2000/svg">
<path opacity="0.5" d="M29.6 0.649993C36.5 0.649993 41.95 2.29999 45.95 5.6C50.05 8.8 52.1 13.45 52.1 19.55C52.1 23.55 51.15 27.35 49.25 30.95C47.45 34.45 45.05 37.85 42.05 41.15C39.05 44.35 35.85 47.5 32.45 50.6C29.05 53.6 25.75 56.6 22.55 59.6C19.35 62.5 16.65 65.45 14.45 68.45H44.9C49 68.45 51.6 67.9 52.7 66.8C53.8 65.6 54.55 63.6 54.95 60.8H57.5C57.5 66.1 57.55 70.2 57.65 73.1C57.75 75.9 57.9 78.45 58.1 80.75C57.2 80.55 55.55 80.4 53.15 80.3C50.75 80.2 48 80.1 44.9 80C41.8 80 38.75 80 35.75 80H0.65V77.45C3.65 74.15 7.25 70.65 11.45 66.95C15.65 63.15 19.7 59.05 23.6 54.65C27.6 50.15 30.9 45.3 33.5 40.1C36.2 34.8 37.55 29.05 37.55 22.85C37.55 17.15 36.2 13.05 33.5 10.55C30.9 7.95 27.25 6.65 22.55 6.65C18.55 6.65 14.85 7.85 11.45 10.25C8.05 12.55 5.05 16.05 2.45 20.75L0.0500003 19.4C1.55 16.2 3.55 13.2 6.05 10.4C8.65 7.5 11.85 5.15 15.65 3.34999C19.55 1.54999 24.2 0.649993 29.6 0.649993Z" fill="#EEEADF"/>
</svg>
