<svg width="20" height="15" viewBox="0 0 20 15" fill="none" xmlns="http://www.w3.org/2000/svg">
<path opacity="0.8" d="M19.2204 1.28765C18.4985 0.37306 17.1656 0 14.6201 0H5.37975C2.77594 0 1.42045 0.39713 0.70123 1.37083C5.96046e-08 2.3202 0 3.71903 0 5.65503V9.345C0 13.0957 0.832 15 5.37975 15H14.6201C16.8276 15 18.0508 14.6709 18.8422 13.8637C19.6538 13.036 20 11.6847 20 9.345V5.65503C20 3.61335 19.9458 2.20628 19.2204 1.28765ZM12.8401 8.0095L8.64406 10.3465C8.55026 10.3988 8.44767 10.4247 8.34522 10.4247C8.22922 10.4247 8.11348 10.3914 8.01097 10.3253C7.81794 10.2006 7.70006 9.9777 7.70006 9.7371V5.07803C7.70006 4.83794 7.81761 4.61518 8.01026 4.49045C8.20297 4.36574 8.44264 4.35721 8.64258 4.4679L12.8386 6.7899C13.0521 6.908 13.1861 7.1429 13.1864 7.3991C13.1867 7.6556 13.0533 7.8908 12.8401 8.0095Z" fill="white"/>
</svg>
